# xmcd CD database file
#
# Track frame offsets:
#	150
#	18022
#	34426
#	58097
#	82665
#
# Disc length: 1361 seconds
#
# Revision: 1
# Processed by: cddbd v1.5.1PL0 Copyright (c) Steve Scherf et al.
# Submitted via: CDex 1.51
#
DISCID=30054f05
DTITLE=Notion - Notion
DYEAR=2004
DGENRE=JPop
TTITLE0=×××　〜unknown story〜
TTITLE1=紅い記憶
TTITLE2=Autumn Leaves
TTITLE3=スカイ
TTITLE4=擬似行為
EXTD=YEAR: 2004
EXTT0=
EXTT1=
EXTT2=
EXTT3=
EXTT4=
PLAYORDER=
